# xmcd
#
# Track frame offsets:
#	150
#	16298
#	35294
#	59183
#	85064
#	102106
#	124744
#	152887
#	170752
#	188539
#	205087
#	229626
#	243803
#	287471
#	301530
#	323146
#	350969
#
# Disc length: 4791 seconds
#
# Revision: 3
# Processed by: cddbd v1.5.2PL0 Copyright (c) Steve Scherf et al.
# Submitted via: EZCDAudioConverter 6.0.0.1
#
DISCID=df12b511
DTITLE=Various Artist - Akella Presents - vol.76 - Various Styles of Blues  C
DTITLE=D1
DYEAR=2016
DGENRE=Blues
TTITLE0=Ged Wilson - Different Class
TTITLE1=Howard Tate - If I Was White
TTITLE2=Airborne Blues Virus - On The Road
TTITLE3=Bluebone - No Good Reason
TTITLE4=Slim Chance and The Gamblers - Run Chicken Run
TTITLE5=Marcus Malone - Jealous Kind
TTITLE6=John Verity - Prove Your Love
TTITLE7=Bob Margolin - Devil's Daughter
TTITLE8=Willie May - Dont Quit Me
TTITLE9=The Naughty Blokes - Heart Attack
TTITLE10=Helander Co - Life Is Hard
TTITLE11=Ernie And The Automatics - Blues Town
TTITLE12=Twelve Bar Blues Band - Old Love
TTITLE13=Dion - Aces Up Your Sleeve
TTITLE14=Big Boy Bloater and The Limits - I Got The Feeling Someone's Watching M
TTITLE14=e
TTITLE15=Bridget Kelly Band - Tall Man
TTITLE16=Tina Schlieske - Take Me Home With You
EXTD=
EXTT0=
EXTT1=
EXTT2=
EXTT3=
EXTT4=
EXTT5=
EXTT6=
EXTT7=
EXTT8=
EXTT9=
EXTT10=
EXTT11=
EXTT12=
EXTT13=
EXTT14=
EXTT15=
EXTT16=
PLAYORDER=
